<svg width="25" height="24" viewBox="0 0 25 24" fill="none" xmlns="http://www.w3.org/2000/svg">
<path fill-rule="evenodd" clip-rule="evenodd" d="M12.264 12.619H12.296C15.224 12.619 17.605 10.238 17.605 7.31C17.605 4.382 15.224 2 12.296 2C9.36702 2 6.98502 4.382 6.98502 7.307C6.97502 10.227 9.34202 12.61 12.264 12.619ZM8.41302 7.31C8.41302 5.169 10.155 3.428 12.296 3.428C14.436 3.428 16.177 5.169 16.177 7.31C16.177 9.45 14.436 11.192 12.296 11.192H12.267C10.135 11.184 8.40602 9.444 8.41302 7.31Z" fill="#9E9E9E"/>
<path fill-rule="evenodd" clip-rule="evenodd" d="M4.375 18.1733C4.375 21.8703 10.337 21.8703 12.296 21.8703C15.695 21.8703 20.215 21.4893 20.215 18.1933C20.215 14.4963 14.255 14.4963 12.296 14.4963C8.896 14.4963 4.375 14.8773 4.375 18.1733ZM5.875 18.1733C5.875 16.7283 8.035 15.9963 12.296 15.9963C16.556 15.9963 18.715 16.7353 18.715 18.1933C18.715 19.6383 16.556 20.3703 12.296 20.3703C8.035 20.3703 5.875 19.6313 5.875 18.1733Z" fill="#9E9E9E"/>
</svg>
