<svg width="30" height="30" viewBox="0 0 30 30" fill="none" xmlns="http://www.w3.org/2000/svg">
    <path
        d="M25.4918 25.9676C25.3702 25.9676 25.2488 25.9213 25.156 25.8286L20.8592 21.5326C20.6739 21.3472 20.6739 21.0467 20.8592 20.8614C21.0448 20.676 21.3453 20.6762 21.5306 20.8614L25.8274 25.1574C26.0128 25.3428 26.0128 25.6433 25.8274 25.8287C25.7347 25.9213 25.6132 25.9676 25.4918 25.9676Z"
        fill="#365558" />
    <path
        d="M21.9833 3.77204C19.5504 1.33963 16.3157 0 12.8751 0C9.43439 0 6.19967 1.33963 3.76673 3.77204C-1.25558 8.79342 -1.25558 16.9638 3.76673 21.9851C6.19967 24.4175 9.43434 25.7571 12.8751 25.7571C16.3158 25.7571 19.5504 24.4175 21.9834 21.9851C24.4163 19.5526 25.7562 16.3186 25.7562 12.8785C25.7562 9.43848 24.4163 6.20451 21.9833 3.77204Z"
        fill="#4ACFD9" />
    <path
        d="M29.8608 27.0419L26.2802 23.462C26.0947 23.2767 25.7942 23.2767 25.6088 23.462L23.4604 25.6099C23.2749 25.7954 23.2749 26.0959 23.4604 26.2812L27.041 29.8611C27.1337 29.9537 27.2552 30.0001 27.3767 30.0001C27.4982 30.0001 27.6197 29.9537 27.7125 29.8611L29.8609 27.7131C30.0461 27.5278 30.0461 27.2273 29.8608 27.0419Z"
        fill="#9BAAAB" />
    <path
        d="M24.5043 24.5662L23.4603 25.61C23.2749 25.7954 23.2749 26.0959 23.4603 26.2812L27.0409 29.8611C27.1336 29.9538 27.2552 30.0001 27.3767 30.0001C27.4982 30.0001 27.6197 29.9538 27.7124 29.8611L28.7564 28.8173L24.5043 24.5662Z"
        fill="#687F82" />
    <path
        d="M3.73712 3.80273C-1.25488 8.82658 -1.24515 16.9739 3.76701 21.9852C6.19995 24.4175 9.43462 25.7572 12.8753 25.7572C16.3017 25.7572 19.5236 24.4283 21.953 22.015L3.73712 3.80273Z"
        fill="#0295AA" />
    <path
        d="M19.4079 6.3469C15.8056 2.74537 9.9442 2.74537 6.34185 6.3469C4.59681 8.09154 3.63574 10.4113 3.63574 12.8787C3.63574 15.346 4.59681 17.6658 6.34179 19.4104C8.14291 21.2112 10.5089 22.1117 12.8748 22.1117C15.2407 22.1117 17.6066 21.2112 19.4078 19.4104C23.0101 15.8088 23.0101 9.94855 19.4079 6.3469Z"
        fill="#E6EAEA" />
    <path
        d="M6.3119 6.37744C4.58603 8.11862 3.63574 10.4255 3.63574 12.8786C3.63574 15.3459 4.59681 17.6657 6.34179 19.4103C8.14291 21.2111 10.5089 22.1115 12.8748 22.1115C15.2274 22.1115 17.5798 21.2209 19.3771 19.4402L6.3119 6.37744Z"
        fill="#CDD4D5" />
    <path
        d="M23.3825 13.3533C23.1203 13.3533 22.9078 13.1409 22.9078 12.8787C22.9078 11.5348 22.649 10.2336 22.1384 9.0113C22.0373 8.76942 22.1515 8.4914 22.3935 8.39032C22.6356 8.28925 22.9135 8.40351 23.0145 8.64538C23.5737 9.98419 23.8573 11.4085 23.8573 12.8787C23.8572 13.1409 23.6448 13.3533 23.3825 13.3533Z"
        fill="white" />
    <path
        d="M21.4509 7.27819C21.3025 7.27819 21.1564 7.20881 21.0637 7.07879C20.7381 6.62147 20.37 6.18653 19.9693 5.78598C18.0744 3.8914 15.555 2.84802 12.8752 2.84802C12.613 2.84802 12.4004 2.63556 12.4004 2.37335C12.4004 2.11114 12.613 1.89868 12.8752 1.89868C15.8086 1.89868 18.5664 3.04079 20.6408 5.11461C21.0786 5.55242 21.4812 6.02803 21.8373 6.52813C21.9893 6.7417 21.9394 7.03807 21.7259 7.19012C21.6424 7.2496 21.5462 7.27819 21.4509 7.27819Z"
        fill="white" />
    <path
        d="M9.27006 9.11328H6.99136C6.72916 9.11328 6.5166 9.32574 6.5166 9.58795V15.9165C6.5166 16.1787 6.72916 16.3912 6.99136 16.3912H9.27006C9.53226 16.3912 9.74482 16.1787 9.74482 15.9165V9.58789C9.74482 9.32574 9.53226 9.11328 9.27006 9.11328Z"
        fill="#9BAAAB" />
    <path
        d="M13.8272 9.87256H11.5485C11.2863 9.87256 11.0737 10.085 11.0737 10.3472V15.9163C11.0737 16.1786 11.2863 16.391 11.5485 16.391H13.8272C14.0894 16.391 14.3019 16.1786 14.3019 15.9163V10.3472C14.3019 10.085 14.0894 9.87256 13.8272 9.87256Z"
        fill="#F0353D" />
    <path
        d="M18.3848 7.59424H16.1061C15.8438 7.59424 15.6313 7.8067 15.6313 8.06891V15.9163C15.6313 16.1785 15.8438 16.3909 16.1061 16.3909H18.3848C18.6471 16.3909 18.8595 16.1785 18.8595 15.9163V8.06891C18.8596 7.8067 18.6471 7.59424 18.3848 7.59424Z"
        fill="#FF8C29" />
    <path
        d="M19.3978 16.3909H5.97867C5.71647 16.3909 5.50391 16.1785 5.50391 15.9163C5.50391 15.6541 5.71647 15.4417 5.97867 15.4417H19.3978C19.6601 15.4417 19.8725 15.6541 19.8725 15.9163C19.8725 16.1784 19.66 16.3909 19.3978 16.3909Z"
        fill="#365558" />
</svg>
