<svg width="34" height="36" viewBox="0 0 34 36" fill="none" xmlns="http://www.w3.org/2000/svg">
  <path
    d="M26.8399 21.62L23.4498 23.7798C21.5185 25.0219 19.2713 25.6823 16.9756 25.6823C14.68 25.6823 12.4328 25.0219 10.5015 23.7798L7.11145 21.62C6.73338 21.3731 6.42322 21.0352 6.20935 20.6373C5.99548 20.2394 5.88474 19.7942 5.88725 19.3424V14.6301H28.0641V19.3424C28.0666 19.7942 27.9558 20.2394 27.7419 20.6373C27.5281 21.0352 27.2179 21.3731 26.8399 21.62Z"
    fill="#656769" />
  <path
    d="M28.064 14.6223H5.88721V18.2665L14.2526 23.1673C15.0778 23.6535 16.018 23.9099 16.9756 23.9099C17.9332 23.9099 18.8734 23.6535 19.6987 23.1673L28.064 18.2665V14.6223Z"
    fill="#525252" />
  <path
    d="M26.8399 21.62L23.4498 23.7798C21.5185 25.0219 19.2713 25.6823 16.9757 25.6823C14.68 25.6823 12.4328 25.0219 10.5015 23.7798L7.11145 21.62C6.73338 21.3731 6.42322 21.0352 6.20935 20.6373C5.99548 20.2394 5.88474 19.7942 5.88725 19.3424V14.6301H28.0641V19.3424C28.0666 19.7942 27.9558 20.2394 27.7419 20.6373C27.5281 21.0352 27.2179 21.3731 26.8399 21.62Z"
    stroke="#45413C" stroke-linecap="round" stroke-linejoin="round" />
  <path
    d="M2.60677 13.4598L14.2523 20.2848C15.0789 20.7671 16.0186 21.0212 16.9754 21.0212C17.9322 21.0212 18.8718 20.7671 19.6984 20.2848L31.344 13.4598C31.8434 13.169 32.2557 12.7495 32.5382 12.245C32.8206 11.7406 32.9628 11.1696 32.95 10.5915C32.9372 10.0134 32.7698 9.44926 32.4653 8.95784C32.1607 8.46643 31.7302 8.06566 31.2185 7.79724L19.4866 1.62415C18.7129 1.21427 17.8508 1 16.9754 1C16.1 1 15.2379 1.21427 14.4642 1.62415L2.73232 7.79724C2.22057 8.06566 1.79003 8.46643 1.48551 8.95784C1.18099 9.44926 1.01361 10.0134 1.0008 10.5915C0.987977 11.1696 1.13019 11.7406 1.41262 12.245C1.69506 12.7495 2.10741 13.169 2.60677 13.4598Z"
    fill="#656769" />
  <path
    d="M31.2187 7.79724L19.4868 1.62415C18.7131 1.21427 17.851 1 16.9756 1C16.1003 1 15.2381 1.21427 14.4645 1.62415L2.73258 7.79724C2.34232 8.00376 1.99846 8.28808 1.72218 8.63268C1.4459 8.97727 1.24306 9.37484 1.12616 9.80088C1.00926 10.2269 0.980776 10.6724 1.04246 11.1099C1.10415 11.5474 1.2547 11.9676 1.48484 12.3446C1.81869 11.9475 2.2481 11.6421 2.73258 11.4571L14.5037 6.74483C16.1189 6.11627 17.9108 6.11627 19.5261 6.74483L31.2972 11.4571C31.7817 11.6421 32.2111 11.9475 32.5449 12.3446C32.7722 11.9628 32.9184 11.5382 32.9745 11.0973C33.0306 10.6564 32.9953 10.2086 32.8709 9.78199C32.7465 9.35534 32.5355 8.95892 32.2513 8.61744C31.967 8.27597 31.6155 7.99677 31.2187 7.79724Z"
    fill="#87898C" />
  <path
    d="M2.60677 13.4598L14.2523 20.2848C15.0789 20.7671 16.0186 21.0212 16.9754 21.0212C17.9322 21.0212 18.8718 20.7671 19.6984 20.2848L31.344 13.4598C31.8434 13.169 32.2557 12.7495 32.5382 12.245C32.8206 11.7406 32.9628 11.1696 32.95 10.5915C32.9372 10.0134 32.7698 9.44926 32.4653 8.95784C32.1607 8.46643 31.7302 8.06566 31.2185 7.79724L19.4866 1.62415C18.7129 1.21427 17.8508 1 16.9754 1C16.1 1 15.2379 1.21427 14.4642 1.62415L2.73232 7.79724C2.22057 8.06566 1.79003 8.46643 1.48551 8.95784C1.18099 9.44926 1.01361 10.0134 1.0008 10.5915C0.987977 11.1696 1.13019 11.7406 1.41262 12.245C1.69506 12.7495 2.10741 13.169 2.60677 13.4598Z"
    stroke="#45413C" stroke-linecap="round" stroke-linejoin="round" />
  <path d="M15.6569 11.1038L7.8252 16.1773V27.4868" stroke="#45413C" stroke-linecap="round"
    stroke-linejoin="round" />
  <path
    d="M7.28338 29.1047L5.89439 33.2908C5.8158 33.5044 5.8085 33.7377 5.87358 33.9557C5.93866 34.1738 6.07262 34.3649 6.25537 34.5003C6.70795 34.8438 7.25702 35.0361 7.82485 35.0501C8.39249 35.0351 8.94124 34.8429 9.39433 34.5003C9.5738 34.3658 9.70562 34.1775 9.77056 33.9627C9.8355 33.7479 9.83016 33.518 9.75531 33.3065L8.34278 29.1047H7.28338Z"
    fill="#FFE500" stroke="#45413C" stroke-linecap="round" stroke-linejoin="round" />
  <path
    d="M6.2085 29.1046C6.2085 29.5337 6.37881 29.9452 6.68198 30.2486C6.98514 30.552 7.39632 30.7225 7.82506 30.7225C8.25381 30.7225 8.66499 30.552 8.96815 30.2486C9.27132 29.9452 9.44163 29.5337 9.44163 29.1046C9.44163 28.6755 9.27132 28.264 8.96815 27.9606C8.66499 27.6572 8.25381 27.4867 7.82506 27.4867C7.39632 27.4867 6.98514 27.6572 6.68198 27.9606C6.37881 28.264 6.2085 28.6755 6.2085 29.1046ZM19.1253 10.2476C19.1253 10.8445 18.168 11.3236 16.9752 11.3236C15.7823 11.3236 14.825 10.8445 14.825 10.2476C14.825 9.65071 15.7823 9.17163 16.9752 9.17163C18.168 9.17163 19.1253 9.65071 19.1253 10.2476Z"
    fill="#FFE500" stroke="#45413C" stroke-linecap="round" stroke-linejoin="round" />
</svg>
