<svg xmlns="http://www.w3.org/2000/svg" width="70.539" height="74.597" viewBox="0 0 70.539 74.597">
  <g id="_1_home" data-name="1 home" transform="translate(-2.217 -0.368)">
    <path id="Path_5512" data-name="Path 5512" d="M66.883,34.457a.034.034,0,0,1-.012-.023L43.766,10.27c-3.176-3.117-3.6-4.258-6.187-4.258-2.008,0-3.4,1.313-6.816,4.625L8.426,34.43a3.8,3.8,0,0,0-1.113,2.7V71.246a3.624,3.624,0,0,0,3.516,3.719H64.445a3.624,3.624,0,0,0,3.516-3.719V37.133a3.808,3.808,0,0,0-1.078-2.676" fill="#f7e3b5"/>
    <path id="Path_5513" data-name="Path 5513" d="M39.234,65.387A1.78,1.78,0,0,1,37.7,63.434V48.883a1.783,1.783,0,0,1,1.531-1.953H60.953a1.783,1.783,0,0,1,1.531,1.953V63.434a1.78,1.78,0,0,1-1.531,1.953H39.234" fill="#ea8342"/>
    <path id="Path_5514" data-name="Path 5514" d="M71.852,33.848,39.188,1.27C38.375.461,37.512.016,36.813.715c0,0-1.977,1.508-2.395,1.93L3.07,33.906c-.777.777-1.2,1.609-.5,2.309l1.953,1.953c.7.7,1.539.277,2.316-.5L37.488,7.1l30.59,30.512c.809.8,1.672,1.254,2.375.555l1.957-1.953c.7-.7.25-1.559-.559-2.367" fill="#e0464c"/>
    <path id="Path_5515" data-name="Path 5515" d="M33.8,74.914V48.8a1.873,1.873,0,0,0-1.879-1.871H17.934A1.875,1.875,0,0,0,16.055,48.8V74.914H33.8" fill="#ea8342"/>
    <path id="Path_5516" data-name="Path 5516" d="M40.609,63.633a1.477,1.477,0,0,1-1.344-1.582V50.266a1.479,1.479,0,0,1,1.344-1.582H59.578a1.476,1.476,0,0,1,1.34,1.582V62.051a1.474,1.474,0,0,1-1.34,1.582H40.609" fill="#a6d1ee"/>
    <path id="Path_5517" data-name="Path 5517" d="M60.918,53.27v-3a1.476,1.476,0,0,0-1.34-1.582H40.609a1.479,1.479,0,0,0-1.344,1.582v3H60.918" fill="#f8a64b"/>
    <path id="Path_5518" data-name="Path 5518" d="M43.176,30.461a5.691,5.691,0,1,1-5.687-5.68,5.68,5.68,0,0,1,5.688,5.68" fill="#ea8342"/>
    <path id="Path_5519" data-name="Path 5519" d="M41.813,30.461a4.326,4.326,0,1,1-4.324-4.316,4.321,4.321,0,0,1,4.324,4.316" fill="#a6d1ee"/>
    <path id="Path_5520" data-name="Path 5520" d="M68.16,68.414a3.216,3.216,0,0,0-1.875.594,2.472,2.472,0,0,0,.074-.594,2.519,2.519,0,0,0-4.633-1.367,2.517,2.517,0,0,0-3.4-.793,3.242,3.242,0,0,0-6.34.113,2.517,2.517,0,0,0-3.3.324,3.239,3.239,0,0,0-5.977,1.723c0,.086,0,.172.012.254a3.273,3.273,0,0,0-1.27-.254,3.23,3.23,0,1,0,0,6.461H68.16a3.23,3.23,0,1,0,0-6.461" fill="#53c285"/>
  </g>
</svg>
