<?xml version="1.0"?>
<svg xmlns="http://www.w3.org/2000/svg" viewBox="0 0 20.48 19.09">
	<defs>
		<style>.cls-1{fill:#3e2ad1;}</style>
	</defs>
	<title>home</title>
	<g id="Слой_2" data-name="Слой 2">
		<g id="Icons">
			<path id="Home" class="cls-1"
				d="M1.74,9.09H1A1,1,0,0,1,.36,7.33L8.32.7a3,3,0,0,1,3.84,0l8,6.63a1,1,0,0,1-.64,1.77h-.74a.5.5,0,0,0-.5.5v6.5a3,3,0,0,1-3,3h-1a2,2,0,0,1-2-2v-3a2,2,0,0,0-2-2h0a2,2,0,0,0-2,2v3a2,2,0,0,1-2,2h-1a3,3,0,0,1-3-3V9.59A.5.5,0,0,0,1.74,9.09Z"></path>
		</g>
	</g>
</svg>
