<?xml version="1.0"?>
<svg xmlns="http://www.w3.org/2000/svg" viewBox="0 0 24 20.56">
	<defs>
		<style>.cls-1{fill:#3e2ad1;}</style>
	</defs>
	<title>home</title>
	<g id="Слой_2" data-name="Слой 2">
		<g id="Icons">
			<path id="Home" class="cls-1"
				d="M18,20.56H16a2,2,0,0,1-2-2v-7H10v7a2,2,0,0,1-2,2H6a3,3,0,0,1-3-3v-7a1,1,0,0,1,2,0v7a1,1,0,0,0,1,1H8v-7a2,2,0,0,1,2-2h4a2,2,0,0,1,2,2v7h2a1,1,0,0,0,1-1v-7a1,1,0,0,1,2,0v7A3,3,0,0,1,18,20.56ZM23.84,8.1a1,1,0,0,0-.29-1.38L14.18.64a4,4,0,0,0-4.35,0L.46,6.72A1,1,0,0,0,1.54,8.4l9.37-6.08a2,2,0,0,1,2.18,0L22.46,8.4a1,1,0,0,0,1.38-.29Z"></path>
		</g>
	</g>
</svg>
