<svg xmlns="http://www.w3.org/2000/svg" xmlns:xlink="http://www.w3.org/1999/xlink" width="67.5" height="67.5" viewBox="0 0 67.5 67.5">
  <defs>
    <clipPath id="clip-path">
      <path id="Path_5651" data-name="Path 5651" d="M3.75,3.75h67.5v67.5H3.75Zm0,0"/>
    </clipPath>
  </defs>
  <g id="_5_Profile_" data-name="5 Profile " transform="translate(-3.75 -3.75)">
    <path id="Path_5648" data-name="Path 5648" d="M45.172,26.762a7.68,7.68,0,0,1-.148,1.5,7.442,7.442,0,0,1-.437,1.438,7.727,7.727,0,0,1-.707,1.328,7.631,7.631,0,0,1-3.445,2.824,7.693,7.693,0,0,1-7.2-.707A7.631,7.631,0,0,1,30.414,29.7a7.442,7.442,0,0,1-.437-1.437,7.614,7.614,0,0,1,0-2.992,7.479,7.479,0,0,1,.438-1.441,7.692,7.692,0,0,1,.707-1.324,7.588,7.588,0,0,1,2.117-2.117,7.586,7.586,0,0,1,1.328-.707A7.36,7.36,0,0,1,36,19.238a7.614,7.614,0,0,1,2.992,0,7.36,7.36,0,0,1,1.438.438,7.586,7.586,0,0,1,1.328.707,7.657,7.657,0,0,1,2.824,3.441,7.479,7.479,0,0,1,.438,1.441A7.68,7.68,0,0,1,45.172,26.762Zm0,0" fill="#e8c018"/>
    <path id="Path_5649" data-name="Path 5649" d="M46.859,43.637H28.141a2.919,2.919,0,0,0-2.914,2.914V52.84H49.773V46.551a2.919,2.919,0,0,0-2.914-2.914Zm0,0" fill="#e8c018"/>
    <g id="Group_4423" data-name="Group 4423" clip-path="url(#clip-path)">
      <path id="Path_5650" data-name="Path 5650" d="M37.5,3.75q-1.658,0-3.309.164c-1.1.105-2.191.27-3.277.484s-2.152.484-3.211.8A32.52,32.52,0,0,0,24.586,6.32c-1.023.422-2.02.895-3,1.414s-1.922,1.09-2.84,1.7-1.8,1.273-2.66,1.973-1.672,1.445-2.453,2.227-1.523,1.6-2.227,2.453-1.359,1.742-1.973,2.66-1.18,1.867-1.7,2.84-.992,1.973-1.414,3A32.52,32.52,0,0,0,5.2,27.7q-.48,1.588-.8,3.211c-.215,1.086-.379,2.18-.484,3.277s-.164,2.2-.164,3.309.055,2.207.164,3.309S4.184,43,4.4,44.086s.484,2.152.8,3.211A32.52,32.52,0,0,0,6.32,50.414c.422,1.023.895,2.02,1.414,3s1.09,1.922,1.7,2.84,1.273,1.8,1.973,2.66,1.445,1.672,2.227,2.453,1.6,1.523,2.453,2.227,1.742,1.359,2.66,1.973,1.867,1.18,2.84,1.7,1.973.992,3,1.414A32.52,32.52,0,0,0,27.7,69.8q1.588.48,3.211.8c1.086.215,2.18.379,3.277.484s2.2.164,3.309.164,2.207-.055,3.309-.164,2.191-.27,3.277-.484,2.152-.484,3.211-.8a32.52,32.52,0,0,0,3.117-1.117c1.023-.422,2.02-.895,3-1.414s1.922-1.09,2.84-1.7,1.8-1.273,2.66-1.973,1.672-1.445,2.453-2.227,1.523-1.6,2.227-2.453,1.359-1.742,1.973-2.66,1.18-1.867,1.7-2.84.992-1.973,1.414-3A32.52,32.52,0,0,0,69.8,47.3q.48-1.588.8-3.211c.215-1.086.379-2.18.484-3.277s.164-2.2.164-3.309-.055-2.207-.164-3.309a33.081,33.081,0,0,0-.492-3.273q-.322-1.623-.8-3.211T68.672,24.59c-.426-1.02-.9-2.02-1.418-2.992s-1.09-1.922-1.7-2.84-1.273-1.8-1.973-2.66-1.441-1.672-2.223-2.453-1.6-1.52-2.453-2.223-1.742-1.359-2.66-1.973-1.867-1.18-2.84-1.7S51.43,6.754,50.41,6.328s-2.059-.793-3.117-1.117-2.129-.59-3.211-.8a33.081,33.081,0,0,0-3.273-.492Q39.156,3.75,37.5,3.75Zm0,12.273a10.456,10.456,0,0,1,2.094.207,10.736,10.736,0,0,1,5.5,2.938A10.9,10.9,0,0,1,46.43,20.8a10.734,10.734,0,0,1,0,11.93,10.9,10.9,0,0,1-1.336,1.629,11.146,11.146,0,0,1-1.629,1.336,10.734,10.734,0,0,1-11.93,0,11.146,11.146,0,0,1-1.629-1.336,10.707,10.707,0,0,1-2.937-5.5,10.691,10.691,0,0,1,0-4.187,11.01,11.01,0,0,1,.613-2.016,10.856,10.856,0,0,1,.992-1.855,10.825,10.825,0,0,1,2.961-2.961,10.856,10.856,0,0,1,1.855-.992,11.01,11.01,0,0,1,2.016-.613A10.78,10.78,0,0,1,37.5,16.023ZM52.84,54.375a1.509,1.509,0,0,1-.117.586,1.533,1.533,0,0,1-.332.5,1.532,1.532,0,0,1-1.082.449H23.691a1.532,1.532,0,0,1-1.082-.449,1.533,1.533,0,0,1-.332-.5,1.509,1.509,0,0,1-.117-.586V46.551a6.2,6.2,0,0,1,.113-1.168,6.284,6.284,0,0,1,.34-1.121,6.046,6.046,0,0,1,1.3-1.941,5.874,5.874,0,0,1,.906-.742,6.133,6.133,0,0,1,1.035-.555,6.228,6.228,0,0,1,1.125-.34,5.826,5.826,0,0,1,1.164-.117H46.859a5.826,5.826,0,0,1,1.164.117,6.228,6.228,0,0,1,1.125.34,6.133,6.133,0,0,1,1.035.555,5.874,5.874,0,0,1,.906.742,6.046,6.046,0,0,1,1.3,1.941,6.284,6.284,0,0,1,.34,1.121,6.2,6.2,0,0,1,.113,1.168Zm0,0" fill="#e8c018"/>
    </g>
  </g>
</svg>
