<?xml version="1.0" encoding="UTF-8" standalone="yes"?>
<svg xmlns="http://www.w3.org/2000/svg" xmlns:xlink="http://www.w3.org/1999/xlink" width="30px" height="30px" viewBox="0 0 30 30" version="1.1">
    <!-- Generator: Sketch 55.1 (78136) - https://sketchapp.com -->
    <title>num_sample_name_tags</title>
    <desc>Created with Sketch.</desc>
    <g id="num_sample_name_tags" stroke="none" stroke-width="1" fill="none" fill-rule="evenodd">
        <g id="38-–-internet">
            <rect id="body" x="0" y="0" width="30" height="30"></rect>
            <g id="icon" fill="#595959" fill-rule="nonzero">
                <path d="M15,30 C6.71572875,30 0,23.2842712 0,15 C0,6.71572875 6.71572875,0 15,0 C23.2842712,0 30,6.71572875 30,15 C30,23.2842712 23.2842712,30 15,30 Z M15,28 C22.1797017,28 28,22.1797017 28,15 C28,7.82029825 22.1797017,2 15,2 C7.82029825,2 2,7.82029825 2,15 C2,22.1797017 7.82029825,28 15,28 Z M6.20126353,19.6026571 C5.8694696,19.1611469 5.9584122,18.5342601 6.39992237,18.2024662 C6.84143255,17.8706723 7.46831939,17.9596149 7.80011331,18.401125 C9.49085242,20.6509508 12.13239,22 15,22 C17.867464,22 20.5088821,20.6510893 22.1996378,18.4014563 C22.5314519,17.9599613 23.1583428,17.8710474 23.5998378,18.2028616 C24.0413328,18.5346758 24.1302466,19.1615667 23.7984325,19.6030616 C21.7338214,22.3501275 18.5030642,24 15,24 C11.4967572,24 8.26585438,22.3499584 6.20126353,19.6026571 Z M22,11 C22,11.5522847 21.5522847,12 21,12 C20.4477153,12 20,11.5522847 20,11 C20,10.4477153 19.5522847,10 19,10 C18.4477153,10 18,10.4477153 18,11 C18,11.5522847 17.5522847,12 17,12 C16.4477153,12 16,11.5522847 16,11 C16,9.34314575 17.3431458,8 19,8 C20.6568542,8 22,9.34314575 22,11 Z M14,11 C14,11.5522847 13.5522847,12 13,12 C12.4477153,12 12,11.5522847 12,11 C12,10.4477153 11.5522847,10 11,10 C10.4477153,10 10,10.4477153 10,11 C10,11.5522847 9.55228475,12 9,12 C8.44771525,12 8,11.5522847 8,11 C8,9.34314575 9.34314575,8 11,8 C12.6568542,8 14,9.34314575 14,11 Z" id="Shape"></path>
            </g>
        </g>
    </g>
</svg>
