<svg width="83" height="80" viewBox="0 0 83 80" fill="none" xmlns="http://www.w3.org/2000/svg">
<circle cx="27.5" cy="78.5" r="1.5" fill="white"/>
<circle cx="54.5" cy="76.5" r="0.5" fill="white"/>
<circle cx="4" cy="59" r="2" fill="white"/>
<circle cx="42.5" cy="40.5" r="31.5" fill="white"/>
<circle cx="73" cy="71" r="1" fill="white"/>
<circle cx="76" cy="49" r="1" fill="white"/>
<circle cx="0.5" cy="33.5" r="0.5" fill="white"/>
<path d="M49.8892 43.092C49.5439 43.4267 49.3852 43.9107 49.4639 44.3854L50.6492 50.9454C50.7492 51.5014 50.5146 52.064 50.0492 52.3854C49.5932 52.7187 48.9866 52.7587 48.4892 52.492L42.5839 49.412C42.3786 49.3027 42.1506 49.244 41.9172 49.2374H41.5559C41.4306 49.256 41.3079 49.296 41.1959 49.3574L35.2892 52.452C34.9972 52.5987 34.6666 52.6507 34.3426 52.5987C33.5532 52.4494 33.0266 51.6974 33.1559 50.904L34.3426 44.344C34.4212 43.8654 34.2626 43.3787 33.9172 43.0387L29.1026 38.372C28.6999 37.9814 28.5599 37.3947 28.7439 36.8654C28.9226 36.3374 29.3786 35.952 29.9292 35.8654L36.5559 34.904C37.0599 34.852 37.5026 34.5454 37.7292 34.092L40.6492 28.1054C40.7186 27.972 40.8079 27.8494 40.9159 27.7454L41.0359 27.652C41.0986 27.5827 41.1706 27.5254 41.2506 27.4787L41.3959 27.4254L41.6226 27.332H42.1839C42.6852 27.384 43.1266 27.684 43.3572 28.132L46.3159 34.092C46.5292 34.528 46.9439 34.8307 47.4226 34.904L54.0492 35.8654C54.6092 35.9454 55.0772 36.332 55.2626 36.8654C55.4372 37.4 55.2866 37.9867 54.8759 38.372L49.8892 43.092Z" fill="url(#paint0_linear_18_7590)"/>
<circle cx="79.5" cy="12.5" r="3.5" fill="white"/>
<circle cx="47" cy="2" r="1" fill="white"/>
<circle cx="8.5" cy="4.5" r="4.5" fill="white"/>
<defs>
<linearGradient id="paint0_linear_18_7590" x1="55.3342" y1="52.6671" x2="23.8631" y2="43.0614" gradientUnits="userSpaceOnUse">
<stop stop-color="#F89300"/>
<stop offset="1" stop-color="#FFBB58"/>
</linearGradient>
</defs>
</svg>
