<svg width="186" height="180" viewBox="0 0 186 180" fill="none" xmlns="http://www.w3.org/2000/svg">
<circle cx="95.5" cy="91" r="70.5" fill="url(#paint0_linear_18_8973)"/>
<circle cx="178.467" cy="27.5" r="7.5" fill="#74E2BE"/>
<circle cx="20.0332" cy="10" r="10" fill="#74E2BE"/>
<circle cx="10.0332" cy="133" r="5" fill="#74E2BE"/>
<circle cx="165.533" cy="160.5" r="2.5" fill="#74E2BE"/>
<path d="M110.797 97.3C110.15 97.9275 109.852 98.835 110 99.725L112.222 112.025C112.41 113.067 111.97 114.123 111.097 114.725C110.242 115.35 109.105 115.425 108.172 114.925L97.0997 109.15C96.7147 108.945 96.2872 108.835 95.8497 108.823H95.1722C94.9372 108.858 94.7072 108.932 94.4972 109.047L83.4222 114.85C82.8747 115.125 82.2547 115.223 81.6472 115.125C80.1672 114.845 79.1797 113.435 79.4222 111.948L81.6472 99.6475C81.7947 98.75 81.4972 97.8375 80.8497 97.2L71.8222 88.45C71.0672 87.7175 70.8047 86.6175 71.1497 85.625C71.4847 84.635 72.3397 83.9125 73.3722 83.75L85.7972 81.9475C86.7422 81.85 87.5722 81.275 87.9972 80.425L93.4722 69.2C93.6022 68.95 93.7697 68.72 93.9722 68.525L94.1972 68.35C94.3147 68.22 94.4497 68.1125 94.5997 68.025L94.8722 67.925L95.2972 67.75H96.3497C97.2897 67.8475 98.1172 68.41 98.5497 69.25L104.097 80.425C104.497 81.2425 105.275 81.81 106.172 81.9475L118.597 83.75C119.647 83.9 120.525 84.625 120.872 85.625C121.2 86.6275 120.917 87.7275 120.147 88.45L110.797 97.3Z" fill="white"/>
<circle cx="106.533" cy="4.5" r="2.5" fill="#74E2BE"/>
<circle cx="62.5332" cy="176.5" r="3.5" fill="#74E2BE"/>
<circle cx="122.033" cy="171" r="1" fill="#74E2BE"/>
<circle cx="170.533" cy="110.5" r="2.5" fill="#74E2BE"/>
<circle cx="1.0332" cy="75" r="1" fill="#74E2BE"/>
<defs>
<linearGradient id="paint0_linear_18_8973" x1="166" y1="161.5" x2="-1.77734" y2="112.855" gradientUnits="userSpaceOnUse">
<stop stop-color="#17CE92"/>
<stop offset="1" stop-color="#2CEAAB"/>
</linearGradient>
</defs>
</svg>
