<svg width="28" height="30" viewBox="0 0 28 30" fill="none" xmlns="http://www.w3.org/2000/svg">
  <path
    d="M5.25642 29.917C5.07194 29.832 4.9273 29.6887 4.84933 29.5135C4.77136 29.3383 4.76534 29.1432 4.83238 28.9643L5.93215 26.0134L8.08521 27.3447L6.34526 29.6612C6.22783 29.8169 6.05302 29.9285 5.85297 29.9755C5.65292 30.0225 5.44108 30.0017 5.25642 29.917ZM22.5793 29.917C22.9596 29.7415 23.1429 29.3353 23.0034 28.9643L21.8899 25.9783L19.6219 27.1742L21.4905 29.6612C21.6079 29.8169 21.7827 29.9285 21.9828 29.9755C22.1828 30.0225 22.3947 30.0017 22.5793 29.917Z"
    fill="#82AEC0" />
  <path
    d="M5.93193 26.0134L5.37109 27.5177C5.71854 27.3347 6.17267 27.3522 6.5338 27.5152C6.89492 27.6782 7.17123 27.964 7.38188 28.2799L8.01932 27.4325C8.01932 27.3974 5.93193 26.0134 5.93193 26.0134ZM21.8979 25.9758L22.5052 27.6305C22.1578 27.4475 21.7419 27.4525 21.3781 27.6155C21.017 27.7784 20.7406 28.0643 20.53 28.3802L19.6956 27.2695L21.8979 25.9758Z"
    fill="#2F7889" />
  <path
    d="M13.9178 27.9789C20.2652 27.9789 25.4107 23.2634 25.4107 17.4465C25.4107 11.6296 20.2652 6.91406 13.9178 6.91406C7.57038 6.91406 2.4248 11.6296 2.4248 17.4465C2.4248 23.2634 7.57038 27.9789 13.9178 27.9789Z"
    fill="#FFEFA1" />
  <path
    d="M13.9178 28.8914C21.3757 28.8914 27.4216 23.3509 27.4216 16.5163C27.4216 9.68165 21.3757 4.14111 13.9178 4.14111C6.4599 4.14111 0.414062 9.68165 0.414062 16.5163C0.414062 23.3509 6.4599 28.8914 13.9178 28.8914Z"
    fill="#CC2929" />
  <path
    d="M13.9181 28.7712C20.9288 28.7712 26.6121 23.5629 26.6121 17.1382C26.6121 10.7134 20.9288 5.50513 13.9181 5.50513C6.9074 5.50513 1.22412 10.7134 1.22412 17.1382C1.22412 23.5629 6.9074 28.7712 13.9181 28.7712Z"
    fill="#FF4638" />
  <path
    d="M13.9181 27.174C19.9663 27.174 24.8694 22.6808 24.8694 17.138C24.8694 11.5953 19.9663 7.10205 13.9181 7.10205C7.86985 7.10205 2.9668 11.5953 2.9668 17.138C2.9668 22.6808 7.86985 27.174 13.9181 27.174Z"
    fill="#FAFAFA" />
  <path
    d="M13.9996 18.2538C14.672 18.2538 15.2171 17.7543 15.2171 17.1381C15.2171 16.522 14.672 16.0225 13.9996 16.0225C13.3273 16.0225 12.7822 16.522 12.7822 17.1381C12.7822 17.7543 13.3273 18.2538 13.9996 18.2538Z"
    fill="#563428" />
  <path
    d="M13.9181 9.58412C13.6965 9.58412 13.516 9.41865 13.516 9.21557V8.11244C13.516 7.90937 13.6965 7.7439 13.9181 7.7439C14.1397 7.7439 14.3203 7.90937 14.3203 8.11244V9.21557C14.3203 9.41865 14.1397 9.58412 13.9181 9.58412ZM13.9181 26.5297C13.6965 26.5297 13.516 26.3643 13.516 26.1612V25.0581C13.516 24.855 13.6965 24.6895 13.9181 24.6895C14.1397 24.6895 14.3203 24.855 14.3203 25.0581V26.1612C14.3203 26.3643 14.1397 26.5297 13.9181 26.5297ZM23.7641 17.5041H22.5604C22.3388 17.5041 22.1583 17.3386 22.1583 17.1356C22.1583 16.9325 22.3388 16.767 22.5604 16.767H23.7641C23.9857 16.767 24.1663 16.9325 24.1663 17.1356C24.1663 17.3411 23.9857 17.5041 23.7641 17.5041ZM5.27582 17.5041H4.07208C3.85048 17.5041 3.66992 17.3386 3.66992 17.1356C3.66992 16.9325 3.85048 16.767 4.07208 16.767H5.27582C5.49742 16.767 5.67798 16.9325 5.67798 17.1356C5.67798 17.3411 5.49742 17.5041 5.27582 17.5041Z"
    fill="#B2947C" />
  <path
    d="M13.9179 9.58412C13.6963 9.58412 13.5157 9.41865 13.5157 9.21557V8.11244C13.5157 7.90937 13.6963 7.7439 13.9179 7.7439C14.1395 7.7439 14.32 7.90937 14.32 8.11244V9.21557C14.32 9.41865 14.1395 9.58412 13.9179 9.58412ZM13.9179 26.5297C13.6963 26.5297 13.5157 26.3643 13.5157 26.1612V25.0581C13.5157 24.855 13.6963 24.6895 13.9179 24.6895C14.1395 24.6895 14.32 24.855 14.32 25.0581V26.1612C14.32 26.3643 14.1395 26.5297 13.9179 26.5297ZM9.2479 10.4616L8.64603 9.5064C8.53386 9.3309 8.59952 9.10526 8.79376 9.00247C8.98526 8.89968 9.23148 8.95985 9.34365 9.13785L9.94552 10.0931C10.0577 10.2686 9.99203 10.4942 9.79779 10.597C9.60628 10.6973 9.36006 10.6371 9.2479 10.4616ZM18.4948 25.1358L17.8929 24.1806C17.7808 24.0051 17.8492 23.7794 18.0407 23.6766C18.2322 23.5738 18.4784 23.6365 18.5905 23.812L19.1924 24.7672C19.3046 24.9427 19.2362 25.1684 19.0447 25.2712C18.8504 25.3715 18.6042 25.3113 18.4948 25.1358Z"
    fill="#B2947C" />
  <path
    d="M9.24777 10.4617L8.6459 9.50647C8.53373 9.33097 8.59939 9.10533 8.79363 9.00254C8.98514 8.89975 9.23135 8.95992 9.34352 9.13792L9.94539 10.0931C10.0576 10.2686 9.9919 10.4943 9.79766 10.5971C9.60615 10.6974 9.35994 10.6372 9.24777 10.4617ZM18.4947 25.1358L17.8928 24.1806C17.7806 24.0051 17.849 23.7795 18.0405 23.6767C18.232 23.5739 18.4783 23.6366 18.5904 23.8121L19.1923 24.7673C19.3045 24.9428 19.2361 25.1684 19.0446 25.2712C18.8503 25.3715 18.6041 25.3113 18.4947 25.1358ZM6.23295 13.4953L5.19062 12.9437C4.99912 12.8409 4.93346 12.6178 5.04289 12.4398C5.15506 12.2643 5.39854 12.2041 5.59278 12.3044L6.63511 12.856C6.82661 12.9588 6.89227 13.1819 6.78284 13.3599C6.67067 13.5379 6.42446 13.5981 6.23295 13.4953ZM22.2454 21.9669L21.2031 21.4153C21.0116 21.3125 20.9459 21.0894 21.0553 20.9114C21.1675 20.7359 21.411 20.6757 21.6052 20.776L22.6476 21.3275C22.8391 21.4303 22.9047 21.6535 22.7953 21.8315C22.6831 22.0095 22.4369 22.0696 22.2454 21.9669ZM18.0378 10.5971C17.8463 10.4943 17.7806 10.2711 17.8901 10.0931L18.4919 9.13792C18.6041 8.96242 18.8476 8.90225 19.0418 9.00254C19.2333 9.10533 19.299 9.32846 19.1896 9.50647L18.5877 10.4617C18.4755 10.6372 18.232 10.6974 18.0378 10.5971ZM8.79363 25.2712C8.60213 25.1684 8.53647 24.9453 8.6459 24.7673L9.24777 23.8121C9.35994 23.6366 9.60342 23.5764 9.79766 23.6767C9.98916 23.7795 10.0548 24.0026 9.94539 24.1806L9.34352 25.1358C9.23135 25.3113 8.98514 25.3715 8.79363 25.2712ZM21.0553 13.3599C20.9432 13.1844 21.0088 12.9588 21.2031 12.856L22.2454 12.3044C22.4369 12.2016 22.6831 12.2643 22.7953 12.4398C22.9075 12.6153 22.8391 12.8409 22.6476 12.9437L21.6052 13.4953C21.411 13.5981 21.1648 13.5379 21.0553 13.3599ZM5.04289 21.834C4.93073 21.6585 4.99912 21.4328 5.19062 21.33L6.23295 20.7785C6.42446 20.6757 6.67067 20.7384 6.78284 20.9139C6.89501 21.0894 6.82661 21.315 6.63511 21.4178L5.59278 21.9694C5.39854 22.0696 5.15232 22.0095 5.04289 21.834Z"
    fill="#B2947C" />
  <path d="M9.4834 14.8291L13.9181 17.1382" stroke="#563428" stroke-miterlimit="10"
    stroke-linecap="round" />
  <path d="M20.2564 13.8062L14.1201 17.1381" stroke="#563428" stroke-miterlimit="10"
    stroke-linecap="round" />
  <path d="M21.6575 7.05683L20.5249 6.3774L24.3796 0.119629L25.556 0.728859L21.6575 7.05683Z"
    fill="#82AEC0" />
  <path
    d="M26.9043 7.73885C27.2408 7.82911 27.6019 7.65863 27.7059 7.35276C28.5923 4.75789 27.4432 1.93487 24.6637 0.62365C21.865 -0.697602 18.8256 0.169861 17.0555 2.38365C16.8558 2.63185 16.9023 2.98034 17.154 3.18342C17.7258 3.64724 18.9952 4.51971 21.5258 5.69304C24.1986 6.93156 26.0316 7.50318 26.9043 7.73885Z"
    fill="#CC2929" />
  <path
    d="M25.449 1.49366C25.449 1.49366 26.163 0.65879 25.1262 0.129788C24.3191 -0.281379 23.8075 0.618676 23.8075 0.618676C23.6297 0.917024 25.3259 1.69924 25.449 1.49366ZM6.23842 7.06448L2.33447 0.72899L3.51359 0.11976L7.30536 6.27724L6.23842 7.06448Z"
    fill="#82AEC0" />
  <path
    d="M1.09541 7.73885C0.758909 7.82911 0.397787 7.65863 0.293828 7.35276C-0.592561 4.75789 0.556462 1.93487 3.336 0.62365C6.1347 -0.697602 9.17414 0.169861 10.9442 2.38365C11.1439 2.63185 11.0974 2.98034 10.8457 3.18342C10.2739 3.64724 9.00452 4.51971 6.47393 5.69304C3.80108 6.93156 1.96812 7.50318 1.09541 7.73885Z"
    fill="#CC2929" />
  <path
    d="M2.5507 1.49366C2.5507 1.49366 1.83667 0.65879 2.87352 0.129788C3.68058 -0.281379 4.19217 0.618677 4.19217 0.618677C4.36999 0.917024 2.67381 1.69924 2.5507 1.49366Z"
    fill="#82AEC0" />
  <path d="M13.918 4.73298V1.29321" stroke="#82AEC0" stroke-width="3.706" stroke-miterlimit="10" />
  <path
    d="M13.9347 2.5164C12.8623 2.5164 11.7871 2.14034 11.7871 2.14034V1.39572C11.7871 1.39572 12.7857 0.987061 13.9867 0.987061C15.1877 0.987061 16.0795 1.39572 16.0795 1.39572V2.14034C16.0823 2.14284 15.0098 2.5164 13.9347 2.5164Z"
    fill="#82AEC0" />
  <path
    d="M12.0575 1.3658C11.9399 1.40591 11.9289 1.55383 12.0384 1.61149C12.197 1.69423 12.3858 1.77947 12.4515 1.76944C13.3543 1.64158 14.6647 1.70426 15.5702 1.82961C15.6332 1.83964 15.8137 1.69924 15.9423 1.59394C16.0134 1.53377 15.997 1.43098 15.9095 1.39337C15.6249 1.27554 14.982 1.06494 13.9862 1.06494C13.067 1.06494 12.4022 1.24295 12.0575 1.3658Z"
    fill="#94D1E0" />
  <path
    d="M22.4971 0.891993C22.5819 1.15775 22.27 1.37587 22.0183 1.5288C21.3838 1.91944 20.8739 2.45762 20.541 3.08823C20.3823 3.38908 20.2045 3.75763 19.8407 3.80527C19.6957 3.82282 19.5534 3.7827 19.4166 3.73757C19.206 3.66737 19.0008 3.58715 18.8011 3.49438C18.563 3.38407 18.3196 3.24367 18.2101 3.02054C18.0679 2.7272 18.2019 2.38122 18.3934 2.11045C18.8503 1.47114 19.5944 1.07501 20.3604 0.814272C20.8228 0.656324 22.2673 0.17245 22.4971 0.891993ZM3.63943 3.00549C3.81725 3.34396 4.01697 3.67239 4.23856 3.98829C4.5094 4.37438 4.82402 4.80561 4.70912 5.25187C4.57506 5.76333 3.95678 6.00902 3.41236 6.17951C3.13331 6.26726 2.857 6.35501 2.57795 6.44276C2.43022 6.49039 2.27428 6.53803 2.11834 6.5305C1.87212 6.52048 1.65053 6.37757 1.511 6.19455C1.36874 6.01153 1.29761 5.7909 1.2429 5.57278C1.03771 4.7329 1.07875 3.84287 1.36053 3.02054C1.52468 2.5492 1.78184 2.05279 2.36456 2.01518C3.07312 1.97005 3.37406 2.49906 3.63943 3.00549Z"
    fill="#FF4638" />
</svg>
