<svg width="28" height="30" viewBox="0 0 28 30" fill="none" xmlns="http://www.w3.org/2000/svg">
	<path
		d="M26.1623 22.3841C26.3879 23.09 26.3095 23.8522 25.9444 24.5031C25.5792 25.154 24.9572 25.6403 24.2151 25.8551L10.3068 29.8796C9.56482 30.0943 8.76358 30.0198 8.07925 29.6727C7.39492 29.3256 6.88353 28.7342 6.65751 28.0286L0.12656 7.61623C0.0147949 7.26678 -0.0234947 6.89982 0.0138781 6.53629C0.051251 6.17277 0.163554 5.81981 0.344373 5.49757C0.525192 5.17534 0.770984 4.89014 1.06771 4.65827C1.36443 4.42641 1.70628 4.25241 2.07372 4.14622L15.982 0.120239C16.7239 -0.0942389 17.5251 -0.01974 18.2093 0.327361C18.8935 0.674462 19.4048 1.26576 19.6308 1.97129L26.1623 22.3836"
		fill="#C3C3C3" />
	<path
		d="M27.9977 26.4564C28.0297 27.1932 27.753 27.9121 27.2282 28.455C26.7034 28.998 25.9734 29.3206 25.1987 29.352L10.6722 29.9348C9.89759 29.9652 9.14193 29.702 8.57113 29.2029C8.00034 28.7039 7.66105 28.0099 7.62775 27.2731L6.68337 5.9569C6.66684 5.59189 6.72615 5.22736 6.8579 4.88417C6.98965 4.54099 7.19126 4.22588 7.45119 3.95688C7.71111 3.68788 8.02426 3.47027 8.37271 3.3165C8.72115 3.16274 9.09806 3.07583 9.48186 3.06076L24.0083 2.47748C24.7831 2.44699 25.5389 2.71024 26.1097 3.2094C26.6806 3.70855 27.0198 4.4028 27.0528 5.13965L27.9977 26.4564Z"
		fill="#969698" />
	<path
		d="M25.5988 22.0643C25.7059 22.3985 25.7427 22.7495 25.7071 23.0972C25.6714 23.445 25.5641 23.7826 25.3911 24.0908C25.2182 24.3991 24.9831 24.6719 24.6992 24.8936C24.4154 25.1154 24.0883 25.2817 23.7368 25.3832L10.4284 29.2364C10.077 29.3381 9.70802 29.373 9.34246 29.339C8.9769 29.3051 8.62196 29.203 8.29791 29.0385C7.97386 28.874 7.68706 28.6504 7.45388 28.3805C7.22071 28.1106 7.04574 27.7996 6.93896 27.4654L0.690628 7.93475C0.583605 7.60054 0.546879 7.24955 0.582548 6.90184C0.618218 6.55413 0.725585 6.21651 0.898511 5.90829C1.07144 5.60006 1.30653 5.32727 1.59036 5.10551C1.87419 4.88375 2.20118 4.71736 2.55266 4.61586L15.8611 0.763117C16.2125 0.661408 16.5816 0.626566 16.9472 0.660583C17.3128 0.6946 17.6678 0.796808 17.9918 0.961367C18.3159 1.12593 18.6027 1.34961 18.8358 1.61963C19.0689 1.88966 19.2438 2.20073 19.3505 2.53508L25.5978 22.0652"
		fill="#D1D2D3" />
	<path
		d="M8.46124 8.99105C8.47807 9.04519 8.13754 9.19113 7.7 9.31776L3.75618 10.4598C3.31864 10.5855 2.9499 10.6458 2.93208 10.5926L2.69549 9.85067C2.67767 9.79747 3.02018 9.65248 3.45772 9.5249L7.40154 8.38424C7.83859 8.25666 8.20782 8.19782 8.22465 8.25101L8.46124 8.99105ZM9.10518 10.9998C9.12201 11.0535 8.78148 11.1999 8.34196 11.3242L4.39913 12.4672C3.96159 12.5929 3.59285 12.6536 3.57503 12.5995L3.33893 11.8594C3.32012 11.8067 3.66164 11.6603 4.10018 11.5337L8.043 10.392C8.48203 10.2654 8.84879 10.2056 8.8676 10.2588L9.10518 10.9998ZM9.78921 13.139C9.80703 13.1931 9.4665 13.3381 9.02698 13.4657L5.08316 14.6063C4.64611 14.7339 4.27688 14.7928 4.26054 14.7396L4.02346 13.9995C4.00663 13.9468 4.34716 13.7994 4.7847 13.6742L8.72852 12.5312C9.16705 12.4046 9.53579 12.3453 9.55163 12.3989L9.78921 13.139ZM23.1065 18.8093C23.1233 18.863 22.7828 19.0094 22.3438 19.1356L18.4015 20.2767C17.9639 20.4043 17.5952 20.4631 17.5769 20.4085L17.3398 19.6689C17.3234 19.6162 17.6655 19.4698 18.103 19.3436L22.0458 18.2016C22.4844 18.0749 22.8521 18.0151 22.8699 18.0683L23.1065 18.8093ZM23.7485 20.8167C23.7673 20.8703 23.4248 21.0167 22.9872 21.1429L19.0444 22.285C18.6059 22.4116 18.2381 22.4714 18.2208 22.4168L17.9837 21.6763C17.9649 21.6236 18.3074 21.4781 18.745 21.351L22.6888 20.2098C23.1273 20.0823 23.4951 20.0234 23.5114 20.0771L23.7485 20.8167ZM24.434 22.9582C24.4518 23.0104 24.1103 23.1568 23.6718 23.283L19.7279 24.4251C19.2904 24.5517 18.9217 24.6115 18.9053 24.5578L18.6677 23.8183C18.6509 23.7651 18.9924 23.6182 19.43 23.4906L23.3738 22.3499C23.8123 22.2238 24.1791 22.1635 24.1964 22.2167L24.434 22.9582ZM21.2658 13.0533C21.2831 13.1074 20.266 13.4478 18.9929 13.8164L7.53963 17.1306C6.26858 17.4982 5.22274 17.7539 5.20591 17.7011L4.96734 16.9606C4.9515 16.9065 5.96913 16.5657 7.24117 16.1975L18.6895 12.8833C19.9616 12.5147 21.0079 12.2596 21.0242 12.3118L21.2613 13.0523M21.8998 14.9425C21.9171 14.9957 20.9 15.337 19.6265 15.7056L8.17318 19.0198C6.90213 19.3884 5.85727 19.643 5.83995 19.5894L5.60286 18.8489C5.58604 18.7957 6.60268 18.4539 7.87472 18.0858L19.328 14.7716C20.5996 14.403 21.6439 14.1478 21.6617 14.201L21.8998 14.9425ZM22.5334 16.9272C22.5502 16.9799 21.5335 17.3217 20.2595 17.6903L8.80623 21.0045C7.53567 21.3726 6.48933 21.6278 6.473 21.576L6.23591 20.835C6.21958 20.7814 7.23573 20.4396 8.50777 20.0719L19.9611 16.7577C21.2346 16.3905 22.2789 16.1344 22.2963 16.1876L22.5334 16.9281"
		fill="#AAAAAA" />
	<path
		d="M17.4849 4.56622C17.6129 4.52899 17.7473 4.51616 17.8804 4.52844C18.0136 4.54073 18.1429 4.5779 18.261 4.63781C18.379 4.69773 18.4834 4.77922 18.5683 4.87761C18.6532 4.976 18.7168 5.08935 18.7555 5.21117L20.2314 9.82089C20.3101 10.067 20.2828 10.3328 20.1556 10.5599C20.0283 10.7869 19.8116 10.9566 19.5528 11.0317L12.074 13.1963C11.8156 13.2708 11.5366 13.2448 11.2983 13.1239C11.06 13.0029 10.8818 12.797 10.803 12.5513L9.32654 7.93972C9.2877 7.81787 9.27449 7.68993 9.28765 7.56323C9.30082 7.43652 9.3401 7.31352 9.40325 7.20125C9.46641 7.08899 9.5522 6.98966 9.65572 6.90893C9.75925 6.82821 9.87848 6.76768 10.0066 6.73079L17.4849 4.56622Z"
		fill="#27A8E0" />
	<path
		d="M14.9456 19.9409C15.4718 19.7893 16.0138 20.0298 16.1588 20.4799L17.4551 24.5351C17.5996 24.9856 17.2898 25.4733 16.7641 25.6258L9.45756 27.74C8.93142 27.8926 8.38796 27.6506 8.24442 27.201L6.94813 23.1463C6.80212 22.6963 7.11344 22.2085 7.63909 22.0551L14.9456 19.9409Z"
		fill="#AEADAD" />
</svg>
