<svg width="41" height="41" viewBox="0 0 41 41" fill="none" xmlns="http://www.w3.org/2000/svg">
    <path
        d="M25.6085 1.21625C24.2127 0.831553 22.5556 1.7242 21.8283 2.86443C21.1506 3.65044 20.4495 4.49899 19.7542 5.39827L19.7689 5.40234C17.9716 7.81663 15.45 11.7177 14.1424 16.0706C13.2251 19.1271 12.9141 21.2502 12.9088 23.0247L9.04583 27.7064C8.93085 27.8456 8.85289 28.0121 8.81912 28.1906C8.78536 28.3692 8.79688 28.5539 8.85263 28.7279C8.90838 28.9019 9.00656 29.0595 9.13812 29.1861C9.26968 29.3128 9.43037 29.4044 9.60539 29.4526L26.0207 33.9763C26.1955 34.0243 26.379 34.0275 26.5543 33.9854C26.7296 33.9433 26.891 33.8573 27.0237 33.7354C27.1563 33.6135 27.256 33.4595 27.3135 33.2877C27.371 33.1159 27.3844 32.9317 27.3526 32.7522L26.1426 25.9254C27.1157 24.1592 27.9598 22.1545 28.6087 19.6615C29.5292 16.1255 29.0958 11.1333 28.6394 7.88054L28.6521 7.88325C28.485 6.73515 28.2891 5.62751 28.081 4.5886C28.0049 3.22698 27.324 1.68911 25.6085 1.21625Z"
        fill="#CA0B4A" />
    <path
        d="M20.8942 5.71714C19.1208 8.04846 16.494 12.0014 15.1747 16.3963C14.3197 19.2408 14.0195 21.2043 13.9894 22.8007C13.9578 24.3967 14.1928 25.6753 14.4796 27.2195L14.4815 27.2272C14.5815 27.7653 14.688 28.3362 14.7861 28.9547L21.501 30.8055C24.0434 27.477 26.2263 24.5221 27.5671 19.3743C28.4719 15.895 27.9844 10.7833 27.508 7.56466L20.8942 5.71714Z"
        fill="#F4F4F4" />
    <path
        d="M25.784 11.5493C26.2532 12.362 26.385 13.3252 26.1502 14.227C25.9155 15.1287 25.3335 15.8952 24.5324 16.3577C23.7312 16.8203 22.7764 16.9411 21.8781 16.6935C20.9798 16.4459 20.2116 15.8502 19.7423 15.0375C19.2731 14.2248 19.1414 13.2616 19.3761 12.3598C19.6108 11.4581 20.1928 10.6916 20.994 10.2291C21.7952 9.7665 22.7499 9.64574 23.6482 9.89333C24.5465 10.1409 25.3148 10.7366 25.784 11.5493Z"
        fill="#9B9B9B" />
    <path
        d="M24.8548 12.086C25.1796 12.6486 25.2708 13.3154 25.1083 13.9397C24.9458 14.564 24.5429 15.0946 23.9883 15.4149C23.4336 15.7351 22.7726 15.8187 22.1507 15.6473C21.5288 15.4759 20.9969 15.0635 20.6721 14.5009C20.3472 13.9382 20.256 13.2714 20.4186 12.6471C20.5811 12.0228 20.984 11.4922 21.5386 11.172C22.0933 10.8517 22.7543 10.7681 23.3762 10.9395C23.9981 11.1109 24.53 11.5233 24.8548 12.086Z"
        fill="#83CBFF" />
    <path
        d="M15.2584 40.708C14.2175 40.4227 11.8114 35.6455 13.5907 33.361C13.5907 33.361 15.3701 31.0766 17.7376 31.7212C20.1074 32.3656 20.4156 34.4493 20.4156 34.4493C20.9131 36.8285 18.5739 39.2402 18.0525 39.0949C17.7656 39.0166 17.8981 38.4926 17.6682 38.4292C17.4368 38.3654 17.3102 38.6635 16.8751 39.3309C16.5648 39.8067 15.6755 40.823 15.2584 40.708Z"
        fill="#FF8257" />
    <path
        d="M13.9845 30.6947C14.0381 30.4886 14.1316 30.2955 14.2598 30.1267C14.3879 29.9579 14.5481 29.8166 14.7313 29.7108C14.9145 29.6051 15.117 29.537 15.3273 29.5104C15.5376 29.4838 15.7515 29.4993 15.9569 29.556L21.1675 30.993C21.5821 31.1072 21.9368 31.382 22.1535 31.7571C22.3702 32.1322 22.4311 32.5767 22.3228 32.993C22.2146 33.4093 21.946 33.7631 21.5763 33.9767C21.2065 34.1903 20.7658 34.2461 20.3512 34.132L15.1396 32.6955C14.7251 32.5812 14.3706 32.3063 14.1541 31.9313C13.9376 31.5563 13.8768 31.1118 13.985 30.6957"
        fill="#533566" />
    <path
        d="M21.4929 23.4206C21.2505 22.0519 19.5299 21.5769 18.6542 22.6382L13.4675 28.9252C13.3525 29.0644 13.2746 29.2309 13.2408 29.4095C13.207 29.588 13.2186 29.7728 13.2743 29.9468C13.3301 30.1207 13.4283 30.2783 13.5598 30.405C13.6914 30.5316 13.8521 30.6233 14.0271 30.6714L21.5992 32.7577C21.7741 32.8058 21.9576 32.8089 22.1329 32.7668C22.3082 32.7247 22.4696 32.6388 22.6022 32.5168C22.7349 32.3949 22.8345 32.241 22.892 32.0691C22.9495 31.8973 22.963 31.7132 22.9312 31.5336L21.4929 23.4206Z"
        fill="#F92F60" />
</svg>
