<svg xmlns="http://www.w3.org/2000/svg" xmlns:xlink="http://www.w3.org/1999/xlink" width="68.25" height="69" viewBox="0 0 68.25 69">
  <defs>
    <clipPath id="clip-path">
      <path id="Path_5635" data-name="Path 5635" d="M62,32h9.551V57H62Zm0,0"/>
    </clipPath>
    <clipPath id="clip-path-2">
      <path id="Path_5637" data-name="Path 5637" d="M3.3,32H13V57H3.3Zm0,0"/>
    </clipPath>
    <clipPath id="clip-path-3">
      <path id="Path_5639" data-name="Path 5639" d="M9,15H66V72.172H9Zm0,0"/>
    </clipPath>
    <clipPath id="clip-path-4">
      <path id="Path_5646" data-name="Path 5646" d="M34,3.172h7V11H34Zm0,0"/>
    </clipPath>
  </defs>
  <g id="_3_signal" data-name="3 signal" transform="translate(-3.301 -3.172)">
    <path id="Path_5633" data-name="Path 5633" d="M37.438,16.422a.8.8,0,0,0,.582-.242.808.808,0,0,0,.238-.586V6.762a.822.822,0,1,0-1.645,0v8.832a.812.812,0,0,0,.242.586A.8.8,0,0,0,37.438,16.422Zm0,0" fill="#212121"/>
    <g id="Group_4417" data-name="Group 4417" clip-path="url(#clip-path)">
      <path id="Path_5634" data-name="Path 5634" d="M71.3,44.688c-.148-4.371-.25-7.387-2.547-9.7a9.588,9.588,0,0,0-6.227-2.562,31.547,31.547,0,0,1,3.133,13.8l-.02,6.109a27.172,27.172,0,0,1-.383,4.469,8.256,8.256,0,0,0,4.176-2.371C71.547,52.117,71.449,49.168,71.3,44.688Zm0,0" fill="#ffa000"/>
    </g>
    <g id="Group_4418" data-name="Group 4418" clip-path="url(#clip-path-2)">
      <path id="Path_5636" data-name="Path 5636" d="M9.211,52.34l-.02-6.109a31.6,31.6,0,0,1,3.133-13.8A9.58,9.58,0,0,0,6.1,34.992c-2.3,2.309-2.4,5.324-2.547,9.7-.148,4.48-.25,7.43,1.867,9.75A8.225,8.225,0,0,0,9.6,56.809,27.609,27.609,0,0,1,9.211,52.34Zm0,0" fill="#ffa000"/>
    </g>
    <g id="Group_4419" data-name="Group 4419" clip-path="url(#clip-path-3)">
      <path id="Path_5638" data-name="Path 5638" d="M37.445,15.594c-15.98,0-28.375,15.023-28.234,30.637l.02,6.109c.051,14.934,12.082,19.832,26.906,19.832h2.621c14.824,0,26.855-4.9,26.9-19.832l.02-6.109C65.824,30.617,53.43,15.594,37.445,15.594Zm0,0" fill="#ffc107"/>
    </g>
    <path id="Path_5640" data-name="Path 5640" d="M37.438,22.77C24.02,22.77,14.473,34.5,15.887,47.816a9.882,9.882,0,0,0,9.766,8.9c5.895-.02,5.895-3.312,11.785-3.312s5.891,3.293,11.781,3.313a9.883,9.883,0,0,0,9.77-8.9C60.4,34.5,50.852,22.77,37.438,22.77Zm0,0" fill="#424242"/>
    <path id="Path_5641" data-name="Path 5641" d="M42.492,43.055a2.477,2.477,0,0,0-2.684-.512,2.452,2.452,0,0,0-.8.531,1.96,1.96,0,0,1-3.105,0,2.412,2.412,0,0,0-.793-.543,2.464,2.464,0,0,0-2.691.52,2.414,2.414,0,0,0-.539.8,2.494,2.494,0,0,0,.512,2.711,6.852,6.852,0,0,0,10.125,0,2.464,2.464,0,0,0,.523-.809,2.49,2.49,0,0,0,.18-.953,2.448,2.448,0,0,0-.191-.945A2.48,2.48,0,0,0,42.492,43.055Zm0,0" fill="#fff"/>
    <path id="Path_5642" data-name="Path 5642" d="M49.219,35.285a2.509,2.509,0,0,0-2.465-2.578,2.473,2.473,0,0,0-1.742.73,2.484,2.484,0,0,0-.723,1.754v3.863a2.479,2.479,0,0,0,2.465,2.484,2.513,2.513,0,0,0,2.465-2.578Zm0,0" fill="#fff"/>
    <path id="Path_5643" data-name="Path 5643" d="M28.121,32.707a2.514,2.514,0,0,0-2.469,2.578c0,.918,0,2.754,0,3.672a2.461,2.461,0,0,0,3.41,2.391,2.583,2.583,0,0,0,.8-.539,2.511,2.511,0,0,0,.531-.8,2.411,2.411,0,0,0,.191-.949V35.191a2.416,2.416,0,0,0-.191-.953,2.436,2.436,0,0,0-1.332-1.34A2.373,2.373,0,0,0,28.121,32.707Zm0,0" fill="#fff"/>
    <path id="Path_5644" data-name="Path 5644" d="M40.727,61.961a3.311,3.311,0,0,1-.965,2.344,3.282,3.282,0,0,1-1.066.715,3.242,3.242,0,0,1-2.516,0,3.282,3.282,0,0,1-1.066-.715A3.358,3.358,0,0,1,34.4,63.23a3.321,3.321,0,0,1,.715-3.609,3.268,3.268,0,0,1,4.648,0,3.274,3.274,0,0,1,.715,1.074A3.353,3.353,0,0,1,40.727,61.961Zm0,0" fill="#424242"/>
    <g id="Group_4420" data-name="Group 4420" clip-path="url(#clip-path-4)">
      <path id="Path_5645" data-name="Path 5645" d="M40.863,6.625a3.461,3.461,0,0,1-1,2.438,3.373,3.373,0,0,1-1.113.75A3.443,3.443,0,0,1,34.273,5.3a3.384,3.384,0,0,1,.742-1.121,3.327,3.327,0,0,1,1.109-.746,3.366,3.366,0,0,1,2.621,0,3.3,3.3,0,0,1,1.113.746,3.479,3.479,0,0,1,1,2.441Zm0,0" fill="#424242"/>
    </g>
  </g>
</svg>
