<svg width="24" height="25" viewBox="0 0 24 25" fill="none" xmlns="http://www.w3.org/2000/svg">
<path fill-rule="evenodd" clip-rule="evenodd" d="M11.9989 10.1406C10.6689 10.1406 9.58789 11.2226 9.58789 12.5526C9.58789 13.8816 10.6689 14.9626 11.9989 14.9626C13.3289 14.9626 14.4109 13.8816 14.4109 12.5526C14.4109 11.2226 13.3289 10.1406 11.9989 10.1406M11.9989 16.4626C9.84189 16.4626 8.08789 14.7086 8.08789 12.5526C8.08789 10.3956 9.84189 8.64062 11.9989 8.64062C14.1559 8.64062 15.9109 10.3956 15.9109 12.5526C15.9109 14.7086 14.1559 16.4626 11.9989 16.4626" fill="white"/>
<mask id="mask0_5_7311" style="mask-type:luminance" maskUnits="userSpaceOnUse" x="2" y="4" width="20" height="17">
<path fill-rule="evenodd" clip-rule="evenodd" d="M2 4.5H21.9998V20.605H2V4.5Z" fill="white"/>
</mask>
<g mask="url(#mask0_5_7311)">
<path fill-rule="evenodd" clip-rule="evenodd" d="M3.56975 12.5527C5.42975 16.6618 8.56275 19.1047 11.9998 19.1057C15.4368 19.1047 18.5698 16.6618 20.4298 12.5527C18.5698 8.44475 15.4368 6.00175 11.9998 6.00075C8.56375 6.00175 5.42975 8.44475 3.56975 12.5527V12.5527ZM12.0017 20.6057H11.9978H11.9967C7.86075 20.6027 4.14675 17.7038 2.06075 12.8488C1.97975 12.6598 1.97975 12.4458 2.06075 12.2568C4.14675 7.40275 7.86175 4.50375 11.9967 4.50075C11.9987 4.49975 11.9988 4.49975 11.9998 4.50075C12.0018 4.49975 12.0018 4.49975 12.0028 4.50075C16.1388 4.50375 19.8527 7.40275 21.9387 12.2568C22.0207 12.4458 22.0207 12.6598 21.9387 12.8488C19.8537 17.7038 16.1388 20.6027 12.0028 20.6057H12.0017Z" fill="white"/>
</g>
</svg>
