<svg width="160" height="22" viewBox="0 0 160 22" fill="none" xmlns="http://www.w3.org/2000/svg">
  <path
    d="M12 18.4243L17.8198 21.8005C18.8856 22.4192 20.1898 21.5046 19.9094 20.3478L18.3667 13.999L23.5134 9.72162C24.453 8.94147 23.9482 7.46187 22.7141 7.36772L15.9407 6.81623L13.2902 0.817141C12.8134 -0.27238 11.1866 -0.27238 10.7098 0.817141L8.05935 6.80278L1.28591 7.35427C0.051828 7.44842 -0.453025 8.92802 0.486562 9.70817L5.63325 13.9855L4.09065 20.3344C3.81017 21.4911 5.11437 22.4058 6.18017 21.7871L12 18.4243Z"
    fill="#FFBD24" />
  <path
    d="M46 18.4243L51.8198 21.8005C52.8856 22.4192 54.1898 21.5046 53.9094 20.3478L52.3667 13.999L57.5134 9.72162C58.453 8.94147 57.9482 7.46187 56.7141 7.36772L49.9407 6.81623L47.2902 0.817141C46.8134 -0.27238 45.1866 -0.27238 44.7098 0.817141L42.0593 6.80278L35.2859 7.35427C34.0518 7.44842 33.547 8.92802 34.4866 9.70817L39.6333 13.9855L38.0906 20.3344C37.8102 21.4911 39.1144 22.4058 40.1802 21.7871L46 18.4243Z"
    fill="#FFBD24" />
  <path
    d="M80 18.4243L85.8198 21.8005C86.8856 22.4192 88.1898 21.5046 87.9094 20.3478L86.3667 13.999L91.5134 9.72162C92.453 8.94147 91.9482 7.46187 90.7141 7.36772L83.9407 6.81623L81.2902 0.817141C80.8134 -0.27238 79.1866 -0.27238 78.7098 0.817141L76.0593 6.80278L69.2859 7.35427C68.0518 7.44842 67.547 8.92802 68.4866 9.70817L73.6333 13.9855L72.0906 20.3344C71.8102 21.4911 73.1144 22.4058 74.1802 21.7871L80 18.4243Z"
    fill="#FFBD24" />
  <path
    d="M114 18.4243L119.82 21.8005C120.886 22.4192 122.19 21.5046 121.909 20.3478L120.367 13.999L125.513 9.72162C126.453 8.94147 125.948 7.46187 124.714 7.36772L117.941 6.81623L115.29 0.817141C114.813 -0.27238 113.187 -0.27238 112.71 0.817141L110.059 6.80278L103.286 7.35427C102.052 7.44842 101.547 8.92802 102.487 9.70817L107.633 13.9855L106.091 20.3344C105.81 21.4911 107.114 22.4058 108.18 21.7871L114 18.4243Z"
    fill="#FFBD24" />
  <path
    d="M148 18.4243L153.82 21.8005C154.886 22.4192 156.19 21.5046 155.909 20.3478L154.367 13.999L159.513 9.72162C160.453 8.94147 159.948 7.46187 158.714 7.36772L151.941 6.81623L149.29 0.817141C148.813 -0.27238 147.187 -0.27238 146.71 0.817141L144.059 6.80278L137.286 7.35427C136.052 7.44842 135.547 8.92802 136.487 9.70817L141.633 13.9855L140.091 20.3344C139.81 21.4911 141.114 22.4058 142.18 21.7871L148 18.4243Z"
    fill="#FFBD24" />
</svg>
